<?xml version="1.0" encoding="utf-8"?>
<!-- Generator: Adobe Illustrator 26.0.3, SVG Export Plug-In . SVG Version: 6.00 Build 0)  -->
<svg version="1.1" id="logo" xmlns="http://www.w3.org/2000/svg" xmlns:xlink="http://www.w3.org/1999/xlink" x="0px" y="0px"
	 viewBox="0 0 1080 1080" style="enable-background:new 0 0 1080 1080;" xml:space="preserve">
<style type="text/css">
	.st0{fill:#FFFFFF;}
	.st1{fill:#FEFDFD;}
</style>
<g>
	<path id="circulo" class="st0" d="M1055.1,486.8c-23-264.6-248-465-515.7-465.5C277.5,20.7,49.1,219.6,20.6,473.1
		C-10.2,747,162.5,989.9,428.7,1046.7c107.6,22.9,216.6,5,306,11.3c108.6,0,198.5-0.4,288.4,0.3c23.6,0.2,38.9-2.6,38.3-32.6
		C1057.6,846,1070.7,666,1055.1,486.8z M539.4,964.9c-236.4,0.5-429.7-192.8-428.2-428c1.4-231.7,196.2-423.8,428.7-422.6
		c233.7,1.2,425.2,193.1,424.8,425.9C964.3,774,773.6,964.4,539.4,964.9z"/>
	<path id="cifrao" class="st1" d="M529.9,229c24,3.1,44.6-2,41.9,16.6c-7.6,52.9,31.2,50.2,62.5,55.3c32.3,5.2,43.6,17.6,35.7,52.7
		c-8.7,38.4-24.7,40.8-57.1,27.7c-27.7-11.2-58.1-14.2-88.1-4.9c-15.1,4.7-27.5,12.6-31,29.1c-3.8,17.6,6.6,29.7,20.1,36.5
		c29.9,15,60.9,27.7,91.4,41.6c52.3,23.8,92.8,56.3,91.9,120.9c-0.9,65-35.8,105.4-94.6,124c-27.7,8.7-35.2,23-32,48.5
		c2.8,21.9-2.1,36.4-29.2,33.5c-19.4-2.1-44.7,5.8-40-28.5c4.4-31.6-9.1-43.3-40.2-43.2c-16.3,0.1-32.5-8.2-49-11.2
		c-47.4-8.8-24.1-39.5-20.9-64.5c4.7-36.7,23.5-26,46.8-17.6c29.6,10.7,60.9,19.7,93.3,14.7c24.3-3.7,49.9-8.6,53.8-39.5
		c3.3-26.7-14-41.2-35.9-50.7c-24-10.4-48.3-19.8-72.5-29.6c-51.9-21-92.2-53.7-93.1-114c-0.9-61.9,35.4-101.2,91.6-120.3
		c21.5-7.3,32.1-16.1,28.7-38.6C499.6,237.8,512.3,225.7,529.9,229z"/>
</g>
</svg>
